<?xml version="1.0" encoding="UTF-8"?>
<svg id="Layer_1" data-name="Layer 1" xmlns="http://www.w3.org/2000/svg" viewBox="0 0 2765.74 2230.3">
  <defs>
    <style>
      .cls-1 {
        fill: #111;
      }

      .cls-2 {
        fill: #f6acc7;
      }

      .cls-3 {
        fill: #151413;
      }

      .cls-4 {
        fill: #fcc959;
      }

      .cls-5 {
        fill: #121211;
      }

      .cls-6 {
        fill: #fbc859;
      }
    </style>
  </defs>
  <path d="M2298.71,1247.63c-7.54,10.14-22.74,2.63-31.17-4.25-26.38-29.38-51.3-60.09-74.78-92.12-19.35-22.5-29.17-23.89-29.47-4.17l1.03,55.16c-.28,35.94-20.82,48.15-54.59,51.44-55.11,5.36-115.1,4.91-170.4,1.26-64.51-4.26-77.05-20.34-82.41-82.91-6.97-81.39-6.98-172.23-5.71-254.79.73-47.14,2.78-94.34,9.24-140.68,4.2-30.1,16.65-47.68,48.12-52.06,52.35-7.28,126.81-6.19,179.92-1.92s70.16,24.72,74.99,77.63c-.23,24.08.47,48.02,2.09,71.82,48.33-43.86,96.45-88.17,144.36-132.91,22.9-20.44,126.97-24.18,150.02-14.34,21.79,9.3,24.65,23.71,14.55,43.45,5.85,11.76,8.5,22.04-.03,33.76-45.2,47.94-94.2,93.44-146.99,136.52l162.96,164.36-1.66,6.51c7.62-2.98,13.5,5.13,8.64,11.52,11.88,14.15,23.36,24.63,28.8,43.2,2.31,7.13,2.31,13.85,0,20.16-.3,6.46-.17,8.53,0,14.4,2.29,6.32,2.29,13.04,0,20.16-5.04,16.16-15.78,28.76-33.29,31.51-35.88,5.62-117.49,1.83-156.79.17-12.93,6.55-22,6.41-27.22-.42l-10.22-2.46Z"/>
  <path class="cls-1" d="M279.83,1123.79c-91.78,103.96-171.92,213.18-219.75,347.03-120.57,337.38,35.85,656.29,394.36,725.27,257.04,49.45,501.8-39.37,715.29-181.05,376.47-253.01,752.89-506.64,1129.25-760.91l-.27-6.49c11.29,1.49,25.9,2.39,37.44,2.88l-1164.32,786.88c-140.68,95.39-298.85,162.1-468.64,183.68l-14.4,2.88c-3.75.34-7.73-.05-11.52,0l-17.28,2.88c-7.66.12-15.38-.02-23.04,0-28.76,2.52-57.61,2.35-86.4,0-6.71-.02-13.45.09-20.16,0l-17.28-2.88c-250.73-6.01-503.56-218.94-509.76-478.08l-2.88-20.16c-.22-20.1-.15-40.38,0-60.48l2.88-23.04c.04-4.77-.3-9.65,0-14.4l2.88-14.4c20.98-196.23,134.09-374.48,270.13-511.79,1.22-89.54.41-179.17.59-268.69.82-2.51,1.78-2.48,2.88,0,7.87,96.37,8.22,194.54,0,290.88Z"/>
  <path d="M1166.87,380.75c41.93-12.3,107.56-21.23,140.88-47.76,50.56-40.26,45.82-113.93,70.82-168.22,15.82,41.53,19.7,101.27,41.7,139.12,1.54,2.65,5.64,1.73,5.8,1.99,7.93-2.15,9.42,5.62,5.76,11.52,10.42,3.09,20.62,9.24,30.6,18.46,41.57,18.09,85.19,31.7,130.84,40.82,9.68,4.38,9.15,14.27-1.66,17.11l-75.59,17.97c-71.8,20.65-90.44,39.49-110.97,112.94l-16.7,69.08c-12.91,30.42-21.2-.83-25.17-18.76l-16.14-65.45c-9-32.59-25.33-63.62-56.02-80.32l-3.19-8.16c-14.58,2.93-23.22,1.01-25.92-5.76-33.31-9.09-68.05-18-100.8-28.8-2.85-1.73-.93-3.65,5.76-5.76Z"/>
  <path d="M829.91,732.11c24.05-18.96,42.89,20.84,40.33,43.42,3.5,100.75,5.04,204.93,5.43,307.28.14,36.17-.98,75.74-4.96,111.09-3.54,31.45-13.64,56.5-48.67,61.53-64.62,9.28-137.88,4.09-195.06-29.85-58.21-35.48-117.18-69.54-176.92-102.19-6.33-2.41-2.69,64.66-1.5,69.92,5.36,60.16-50.82,64.72-97.34,63.69-49.74-1.1-70.73-9.55-77.35-62.63-2.44-19.57-3.92-55.31,5.97-70.58-.94-96.61-1.35-194.16,0-290.88-2.97-14.93-2.35-30.9,0-46.08,1.52-30.44,2.87-53.55,38.87-57.61,20.7-2.33,65.07-1.83,86.05.36,49.02,5.12,175.23,83.06,226.43,109.09,8.56-4.07,20.41,1.44,20.16,11.52l5.4-3.73,44.1,20.67c3.47.57,7.12-.28,10.97-2.54,2.34-18.7,2.57-37.51.69-56.43-9.14-2.74-7.28-15.45-.69-21.33-1.39-67.43,20.73-58.53,79.33-57.61,4.04.06,8.73-2.92,9.95-2.87,10.82-4.13,25.01-5.77,28.8,5.76Z"/>
  <path class="cls-1" d="M2128.79,3.47c28.37-3.46,57.76-2.59,86.4,0,6.68.21,13.5-.42,20.16,0,5.47,2.03,11.23,2.99,17.28,2.88,272.44,28.53,481.23,197.04,509.76,478.08-.15,7.92.81,15.6,2.88,23.04.93,18.71.14,38.75,0,57.6l-2.88,23.04c-.04,4.72.42,9.75,0,14.4-1.97,4.53-2.93,9.33-2.88,14.4-21.19,165.27-104.5,321.48-211.64,446.44-16.35,19.07-37.2,36.74-50.44,57.56-3.11-3.7-6.48-7.1-8.64-11.52l2.43-8.68c120.95-133.86,216.38-287.09,245.89-467.26,60.18-367.41-205.26-610.96-561.48-611.62-279.47-.52-502.65,129.95-724.59,289.94-6.05,3.04-12.46,4.91-19.21,5.63-6.14-7.13-3.95-8.59-5.76-11.52,111.77-75.23,220.08-158.11,343.65-213.63,100.44-45.13,208.67-76.13,318.75-85.89l14.4-2.88c8.56-.53,17.33.29,25.92,0Z"/>
  <path class="cls-5" d="M1287.83,421.07c.96,2.14,1.54,5.33.06,6.02-21.81,10.1-40.66,23.79-61.75,39.77-137.05,87.21-269.13,175.62-396.22,265.25-7.06-1.27-24.27-5.57-28.8-5.76l460.8-311.04c6.33,1.73,12.84-.62,25.92,5.76Z"/>
  <path class="cls-3" d="M711.83,864.59l-5.19-5.26-1.03-39.46c-1.64-2.42-45.48,24.63-47.6,31.19l-6.66-.88c-5.07-2.56-12.94-7.85-20.16-11.52l80.64-51.84c.52,24.98,7.72,53.12,0,77.76Z"/>
  <path class="cls-1" d="M2215.19,3.47c-27.86-.88-58.55-.95-86.4,0,2.99-4.77,10.93-2.88,15.8-2.93,22.76-.24,48.81-2.13,70.6,2.93Z"/>
  <path class="cls-1" d="M636.95,2226.83c-21.8,5.06-47.85,3.17-70.6,2.93-4.87-.05-12.81,1.84-15.8-2.93,28.76.09,57.64.08,86.4,0Z"/>
  <path d="M279.83,832.91h-2.88c.03-14.64-2.45-33.2,2.88-46.08-.76,15.22.21,30.81,0,46.08Z"/>
  <path class="cls-1" d="M2765.27,507.47c-5.76-4.97-1.97-15.83-2.88-23.04.72,7.09,2.43,13.85,2.88,23.04Z"/>
  <path class="cls-1" d="M2762.39,588.11c.06-7.21-2.25-18.25,2.88-23.04-.05,7.21,2.25,18.26-2.88,23.04Z"/>
  <path class="cls-1" d="M.47,1665.23c.05-7.21-2.25-18.26,2.88-23.04-.06,7.21,2.25,18.26-2.88,23.04Z"/>
  <path class="cls-1" d="M2526.23,1184.27c.31-6.69-.21-13.46,0-20.16,1.69,5.76,7.24,14.1,0,20.16Z"/>
  <path class="cls-1" d="M2526.23,1218.83c-.14-6.71.2-13.46,0-20.16,7.14,6.06,1.84,14.27,0,20.16Z"/>
  <path class="cls-1" d="M3.35,1745.87c-5.01-3.92-2.81-13.85-2.88-20.16,5.07,3.96,2.73,13.82,2.88,20.16Z"/>
  <path class="cls-1" d="M2252.63,6.35c-5.43-.42-14.05,2.21-17.28-2.88,7.43.46,12.57,2.39,17.28,2.88Z"/>
  <path class="cls-1" d="M530.39,2226.83c-5.44-.07-14.15,1.96-17.28-2.88,5.45.13,14.13-2,17.28,2.88Z"/>
  <path class="cls-1" d="M677.27,2223.95c-3.13,4.84-11.84,2.8-17.28,2.88,3.14-4.84,11.85-2.81,17.28-2.88Z"/>
  <path class="cls-1" d="M2102.87,3.47c-2.02.12-8.69,2.37-14.4,2.88,2.46-4.67,9.79-2.71,14.4-2.88Z"/>
  <path d="M1166.87,380.75l-5.76,5.76c-1.43-.47-3.94.32-5.75-.03,1.2-6.63,7.5-4.55,11.51-5.73Z"/>
  <path class="cls-1" d="M2759.51,616.91c.17-4.61-1.79-11.94,2.88-14.4-.59,6.53-2.41,10.7-2.88,14.4Z"/>
  <path class="cls-1" d="M3.35,1627.79c.42-6.65,2.61-11.92,2.88-14.4-.17,4.61,1.79,11.94-2.88,14.4Z"/>
  <path class="cls-1" d="M703.19,2221.07c-3.7.47-7.92,2.29-14.4,2.88,2.46-4.67,9.79-2.71,14.4-2.88Z"/>
  <path class="cls-4" d="M2488.79,1109.39l-169.91-171.37c33.96-28.95,68.68-58.22,100.83-89.23,10.24-9.88,46.54-42.96,51.42-52.24,8.53-16.23-2.32-19.15-2.34-28.44-.01-5.76,6.5-10.42,5.59-19.88-1.09-11.42-10.87-17.81-21.53-19.06-23.65-2.77-76.64-2.13-100.97-.04-20.99,1.8-31.83,8.77-47.45,21.67-40.26,33.22-78.24,77.75-118,112.4-7.58,6.6-17.09,13.88-25.93,18.68-9.8-54.97,19.81-145.74-61.85-152.74-48.07-4.12-130.18-3.34-178.79-.03-45.76,3.12-51,23.29-55.98,64.98-11.26,94.28-6.73,239.76-3.04,337.03.78,20.51,1.68,58.49,6.65,76.87,7.09,26.2,26.76,37.08,52.53,39.63,52.73,5.21,140.34,5.23,192.91,0,65.85-6.55,39.35-58.05,45.02-104.8,2.71-22.34,16.61-17.29,30-4.73,28.11,26.36,55.46,76.72,83.37,100.96,9.76,8.48,16.31,7.13,27.4,8.6l11.51,4.31-7.69,6.71c-369.17,242.72-729.9,498.57-1099.02,741.3-161.72,106.34-310.75,186.38-507.87,209.25-504.04,58.48-830.37-327.57-614.12-807.08,45.85-101.67,112.31-189.22,186.83-271.09,3.39-3.73,5.79-7.14,11.48-7.23.34,34.31-9.5,96.72,21.58,118.1,20.14,13.85,81.05,9.61,105.3,4.46,56.98-12.09,27.68-70.89,34.59-115.17.8-5.12,3.33-13.04,9.78-13.18,66.91,31.47,127.25,75.98,192.58,109.96,52.43,27.28,111.47,27.69,170.52,22.65,22.98-1.96,39.3-11.44,46.6-34.04,4.44-13.73,5.8-41.46,6.54-56.82,5.54-113.57,3.33-237.79-2.97-351.21-1.15-20.69,6.22-63.97-17.93-74.25-6.81-2.9-11.03-1.2-16.52-2.18-5.11-6.11-.47-6.15,3.64-9.32,137.05-105.95,300.5-192.92,440.07-297.23l14.21-4.49c69.15,33.76,65.8,112.47,87.91,175.66.97,2.77.34,6.61,4.22,5.77,10.69-36.99,17.27-79.15,30.39-115.06,30.09-82.32,113.49-78.79,185.62-100.95,0-4.32-8.7-5.38-12.18-6.49-53.75-17.08-113.51-18-151.96-62.6,131.57-85,251.86-178.32,399.6-235.44,267.02-103.23,619.03-104.2,812.76,136.2,182.84,226.89,108.02,540.48-46.49,759.67-32.98,46.78-71.64,88.35-108.91,131.57Z"/>
  <path class="cls-2" d="M1902.89,741.43c64.26,3.44,137.9-6.91,201.06-.83,64.7,6.23,37.13,100.56,44.58,139.74,4.74,24.92,33.87-.64,43.16-8.52,40.09-34.03,77.69-79.1,118-112.4,11.37-9.39,20.63-17.35,35.89-18.83,12.44-1.2,109.05-1.38,113.94,1.55,2.08,1.25,4.74,6.24,4.72,8.71-.06,6.29-61.2,65.67-70.95,74.89-25.88,24.47-69.07,54.49-90.46,79.46-9.33,10.89-10.93,20.37-.36,31.44,58.17,68.31,149.55,133.39,200.15,205.93,14.6,20.93,23.16,41.07-.67,59.69-71.15,4.18-143.83,2.47-215.43.89-6.5-2.82-10.91-8.22-15.72-13.08-20.58-20.82-70.63-95.36-91.92-103.92-51.21-20.58-18.93,84.32-36.11,105.42-6.54,8.04-25.82,12.09-35.99,12.97-46.76,4.02-134.86,3.99-181.65,0-21.49-1.83-42.48-9.58-48.32-32.32-8.2-31.88-3.64-77.02-4.73-110.47-2.69-82.2-5.71-168.18-.09-250.41,1.51-22.15,4.15-65.41,30.89-69.91Z"/>
  <path class="cls-2" d="M425.96,1195.06c-12.75,13.59-101.64,15.62-118.47,6.18-21.64-12.14-15.01-44.48-16.18-64.46-6-102.53-9.96-237.95-2.97-339.99,1.36-19.83,3.23-53.24,27.43-56.09,21.45-2.53,84.33-2.2,104.58,2.08,16.47,3.48,39.59,17.45,55.37,25.27,71.93,35.63,141.96,75.79,213.85,111.58,13.29,4.86,29.59,4.87,33.15-11.33,6.28-28.63-3.13-74.98.55-106.01,1.3-10.92,6.96-20.15,18.64-21.68,18.11-2.38,64.89-1.71,83.78.04,30.37,2.81,28.52,20.79,30.25,47.51,6.35,98,3.85,207.47-.09,305.43-1.13,27.94,8.2,105.79-30.14,110.98-22.11,2.99-119.36,2.88-139.97-1.4-9.51-1.97-24.22-10.77-33.45-15.51-60.2-30.91-129.34-85.36-189.86-109.64-12.99-5.21-25.8-5.7-29.34,10.4-5.08,23.09,6.63,92-7.12,106.65Z"/>
  <path class="cls-6" d="M651.35,850.19l8.29-10.44,52.18-32.75c-1.88,17.83,2.62,40.48.02,57.59-1.3,8.52-3.46,9.64-12.27,8.14-4.86-.83-40.53-18.66-48.21-22.54Z"/>
  <path d="M1543.57,715.69c53-4.14,109.75-.2,161.93,9.15,28.62,5.13,77.13,10.7,89.75,39.85,8.82,20.37,8.23,88.59-1.96,108.56-20.06,39.32-85.86,8.52-120.98,8.63-70.67.22-111.44,70.35-84.55,133.5,34.76,81.64,103.39,50.08,173.46,56.94,15.36,1.5,30.38,4.43,39.27,18.33,13.13,20.55,13.11,105.06-1.62,125.13-13.42,18.27-53.87,26.53-75.56,31-183.08,37.7-428.22,30.14-444.08-207.98-12.57-188.66,70.25-307.94,264.35-323.11Z"/>
  <path d="M996.95,1858.22c-.44,4.37-4.28,4.44-7.35,5.58-43.38,16.07-100.44,18.08-138.75,45.57-52.18,37.45-49.42,115.44-71.34,170.61-19.22-48.59-19.6-117.89-56.09-157.06-39.23-42.1-103.26-40.16-153.99-59.13-3.06-1.14-6.92-1.19-7.35-5.58,38.22-10.27,85.55-17.39,121.71-32.4,76.25-31.66,70.88-117.07,95.73-183.66,24.83,66.06,19.97,152.2,95.73,183.66,36.34,15.09,83.45,21.5,121.71,32.4Z"/>
  <path d="M981.86,729.98c40.97-5.87,155.48-4.97,197.94-.72,59.75,5.99,48.02,71.93,50.31,116.73,4.71,91.87,3.94,184.55.15,276.39-1.48,35.75,8.02,103.39-31.69,120.95-9.41,4.16-28.19,6.57-38.78,7.3-39.68,2.72-145.47,4.82-180.83-3.73-37.94-9.17-40.52-45.47-42.46-78.5-6.59-111.87-8.22-248.49,0-359.94,2.53-34.28,5-72.7,45.36-78.48Z"/>
  <path d="M1195.67,1616.24c-27.67,6.62-62.02,11.87-87.93,22.97-54.55,23.39-52.76,83.84-69.03,132.6-18.88-42.49-15.33-101.09-59.93-127.3-26.07-15.32-67.5-20.11-97.03-28.28.37-4.03,4.13-4.6,7.07-5.86,24.92-10.62,59.09-11.8,85.03-24.41,50.63-24.62,45.37-86.06,64.86-131.01,11.22,31.59,14.17,80.14,34.49,106.66,28.27,36.89,75.52,34.38,115.12,49.04,3.07,1.14,6.91,1.21,7.35,5.58Z"/>
  <path class="cls-2" d="M1569.48,724.32c49.16-2.08,105.65,3.85,153.78,14.45,42.64,9.39,71.19,13.56,68.23,66.38-4.21,75.12-71.78,33.23-119.17,33.25-103.61.05-131.3,126.94-83.27,201.62,43.51,67.66,120.6,33.54,183.9,43.62,33.2,5.28,32.39,79.31,13.21,96.41-27.04,24.11-149.73,36.81-188.76,38.76-186.41,9.3-321.93-59.62-306.65-266.33,11.63-157.35,134.28-222.04,278.73-228.15Z"/>
  <path class="cls-2" d="M976.01,741.41c66.15,4.27,144.9-8,209.58-.66,28.59,3.25,29.62,27.05,32.76,50.76,12.19,92.12,6.16,239.23.4,333.74-1.58,25.92,5.28,62.87-25.28,75.52-9.49,3.93-31.34,5.99-42.31,6.65-39.9,2.41-95.53,2.29-135.45-.15-9.35-.57-33.12-2.59-40.56-5.52-33.18-13.07-25.63-57.39-27.18-85.14-4.65-83.09-14.46-272.02,4.22-347.2,3.73-15.03,7.94-23.56,23.83-28.01Z"/>
</svg>